<?xml version="1.0" standalone="no"?>
<!DOCTYPE svg PUBLIC "-//W3C//DTD SVG 20010904//EN"
 "http://www.w3.org/TR/2001/REC-SVG-20010904/DTD/svg10.dtd">
<svg version="1.0" xmlns="http://www.w3.org/2000/svg"
 width="512.000000pt" height="512.000000pt" viewBox="0 0 512.000000 512.000000"
 preserveAspectRatio="xMidYMid meet">

<g transform="translate(0.000000,512.000000) scale(0.100000,-0.100000)"
fill="#000000" stroke="none">
<path d="M2295 4155 c-6 -3 -134 -23 -286 -44 l-276 -40 -331 -165 -332 -166
-248 -372 -248 -373 -127 -338 -127 -339 0 -347 c0 -195 4 -372 10 -402 47
-250 484 -426 1255 -505 118 -12 319 -18 760 -24 585 -7 607 -8 873 -38 150
-18 291 -32 315 -33 56 -2 336 77 362 102 19 18 20 38 27 267 7 259 25 433 59
567 29 112 33 117 53 59 29 -91 38 -158 45 -356 5 -179 8 -199 26 -217 13 -13
80 -35 198 -64 l178 -45 136 45 c75 25 144 54 154 64 32 32 24 240 -17 489
-67 399 -216 690 -403 785 -19 10 -58 25 -85 34 l-51 17 -75 221 -75 221 -250
291 -249 291 -316 165 -315 166 -285 39 c-157 22 -298 42 -315 45 -16 2 -35 2
-40 0z m-182 -198 c-10 -13 -108 -125 -217 -250 -138 -158 -204 -226 -215
-223 -9 3 -43 10 -76 16 -45 9 -94 33 -194 93 l-134 80 249 126 249 125 175
27 c96 15 176 27 178 28 2 1 -5 -9 -15 -22z m582 -3 l190 -26 145 -75 c162
-84 313 -165 319 -169 2 -2 -73 -41 -165 -87 -147 -74 -179 -86 -249 -95 -44
-6 -83 -8 -86 -4 -4 4 -82 108 -174 232 -92 124 -172 231 -178 238 -12 16 -23
16 198 -14z m-191 -243 c97 -129 174 -236 173 -238 -2 -2 -55 -10 -117 -18
-120 -16 -675 -22 -683 -7 -7 11 435 514 444 505 4 -5 87 -113 183 -242z
m-1213 -220 c66 -41 113 -76 113 -85 -1 -12 -324 -537 -344 -559 -4 -5 -75 26
-159 67 l-151 76 196 295 c165 246 199 293 213 285 10 -5 69 -40 132 -79z
m2403 -128 c103 -120 185 -222 183 -227 -4 -12 -418 -285 -432 -285 -5 0 -76
124 -156 277 l-147 277 172 87 c94 48 176 87 183 87 6 1 95 -97 197 -216z
m-1998 -33 c65 -13 124 -25 130 -29 7 -4 -13 -108 -61 -314 -40 -169 -74 -309
-77 -312 -2 -3 -90 5 -194 16 -164 19 -197 26 -247 51 l-58 29 20 32 c11 18
94 150 183 294 90 144 168 261 174 259 6 -2 64 -14 130 -26z m1357 -72 c30
-57 98 -185 152 -286 54 -101 96 -185 94 -187 -3 -2 -131 -35 -286 -74 -180
-45 -303 -71 -338 -71 -30 0 -55 1 -55 3 0 2 -29 149 -65 327 -36 178 -64 324
-62 325 2 2 463 62 489 64 11 1 33 -31 71 -101z m-704 -30 c6 -29 35 -174 65
-321 l54 -269 -308 4 c-170 1 -311 6 -314 9 -3 3 27 146 67 317 l72 312 177 0
177 0 10 -52z m1658 -363 c23 -71 42 -129 40 -130 -3 -3 -384 52 -398 57 -12
4 292 207 305 204 5 -1 29 -60 53 -131z m-3067 -140 c138 -69 250 -131 250
-138 -1 -18 -126 -576 -131 -581 -2 -2 -71 11 -153 29 l-150 34 -134 135 -135
134 83 224 c96 257 108 288 115 288 3 0 118 -56 255 -125z m2505 -136 l-60
-61 -75 7 c-41 3 -85 9 -97 12 l-23 5 25 19 c56 45 150 73 260 78 29 1 29 0
-30 -60z m368 24 c15 -9 -106 -128 -127 -126 -12 1 -43 4 -70 8 l-49 7 64 64
64 65 55 -7 c30 -4 59 -9 63 -11z m-2163 -89 c140 -15 258 -30 262 -33 6 -6
-40 -602 -48 -610 -2 -2 -90 4 -196 13 -174 15 -431 58 -451 76 -6 5 96 498
119 573 4 14 13 17 32 13 15 -3 142 -17 282 -32z m2577 28 c9 -6 7 -27 -8 -87
-42 -167 -37 -155 -70 -155 -37 0 -81 -22 -133 -66 l-39 -34 -64 95 c-35 52
-63 101 -63 109 0 25 105 111 156 129 51 16 199 23 221 9z m-1283 -79 c-24
-43 -57 -113 -72 -155 -15 -43 -30 -78 -33 -78 -5 0 -33 215 -34 254 0 8 132
49 177 55 3 1 -14 -34 -38 -76z m-256 -265 c19 -150 36 -280 38 -289 4 -13
-28 -21 -197 -49 l-202 -33 -151 12 c-83 7 -153 15 -155 17 -4 4 35 509 45
577 l6 37 291 0 292 0 33 -272z m1779 104 l47 -93 -46 -45 -45 -46 -23 34
c-13 18 -36 47 -51 63 l-28 30 26 104 26 104 24 -29 c13 -16 45 -71 70 -122z
m-1279 86 c46 -6 82 -16 82 -22 0 -6 -25 -87 -56 -179 -39 -118 -60 -167 -69
-163 -7 2 -52 12 -99 22 -70 14 -86 20 -86 35 0 42 84 273 112 307 13 15 13
15 116 0z m439 -58 c1 0 -7 -21 -18 -47 -27 -63 -75 -227 -83 -285 -4 -28 -12
-48 -20 -48 -19 0 -187 38 -193 44 -4 4 100 334 113 357 2 4 134 -9 201 -21z
m196 -169 l58 -88 -25 -75 c-14 -40 -28 -93 -32 -116 -4 -23 -7 -42 -8 -42 -4
0 -151 61 -153 64 -13 12 81 346 96 346 3 0 32 -40 64 -89z m410 -41 c42 -36
72 -103 103 -229 32 -131 72 -441 57 -441 -5 0 -24 4 -43 9 -19 6 -54 15 -77
21 l-43 11 0 117 c0 152 -21 288 -65 419 -19 58 -33 109 -29 114 12 20 64 8
97 -21z m-3593 -422 c0 -148 -4 -268 -8 -268 -16 0 -119 79 -136 104 -14 22
-16 62 -16 308 l0 283 80 -80 80 -80 0 -267z m3944 260 c31 -152 33 -136 -19
-159 -26 -11 -48 -19 -50 -17 -2 1 -11 42 -21 90 l-18 88 39 40 c21 22 42 40
46 40 3 0 14 -37 23 -82z m-1564 -59 c52 -11 95 -21 96 -22 1 -1 -10 -73 -24
-161 l-26 -158 -85 7 c-47 4 -89 9 -92 10 -7 5 27 345 35 345 1 0 44 -9 96
-21z m-1945 -64 c138 -31 258 -58 268 -61 16 -5 17 -27 17 -274 l0 -269 -27 4
c-238 40 -424 82 -505 114 l-28 11 0 265 c0 209 3 265 13 265 7 0 125 -25 262
-55z m2317 -16 c51 -11 94 -22 96 -24 4 -4 -17 -277 -21 -281 -5 -5 -239 25
-245 31 -3 3 5 71 18 150 28 167 14 155 152 124z m-1512 -104 c157 -14 304
-27 327 -30 l41 -6 1 -249 1 -250 -157 0 c-149 0 -369 11 -510 26 l-63 6 0
269 0 269 38 -5 c20 -3 165 -16 322 -30z m1889 -16 c22 -9 23 -13 17 -62 -3
-28 -6 -69 -6 -89 l0 -38 -80 0 -81 0 6 78 c3 42 8 96 11 119 l5 42 52 -20
c29 -12 63 -25 76 -30z m-1024 9 c-9 -52 -25 -324 -25 -425 l0 -93 -107 0
c-60 0 -132 -3 -160 -6 l-53 -7 0 256 0 255 68 11 c37 7 101 18 142 25 41 7
90 14 108 15 32 1 33 0 27 -31z m1889 -70 c3 -13 6 -53 6 -90 l0 -66 -45 -15
c-33 -12 -45 -13 -46 -4 0 7 -4 45 -8 86 l-7 74 40 18 c52 23 52 23 60 -3z
m-1616 -227 c22 -1 22 -3 22 -127 l0 -125 -57 6 c-32 3 -70 9 -85 11 l-28 6 0
108 c0 60 2 115 5 122 4 11 18 12 63 7 31 -4 67 -8 80 -8z m322 -36 c69 -8
126 -15 128 -15 1 0 2 -55 2 -123 l0 -123 -112 13 c-62 6 -123 12 -135 13 -23
0 -23 2 -23 125 0 69 3 125 8 125 4 0 63 -7 132 -15z m428 -117 l-3 -91 -65
-19 c-36 -10 -68 -18 -72 -18 -5 0 -8 50 -8 110 l0 110 75 0 76 0 -3 -92z"/>
</g>
</svg>
